<svg width="32" height="32" viewBox="0 0 32 32" fill="current" xmlns="http://www.w3.org/2000/svg">
<path d="M30.53 5.47003L26.53 1.47003C26.3878 1.33755 26.1998 1.26543 26.0055 1.26885C25.8112 1.27228 25.6258 1.35099 25.4884 1.48841C25.3509 1.62582 25.2722 1.81121 25.2688 2.00551C25.2654 2.19981 25.3375 2.38785 25.47 2.53003L25.8587 2.91878L18.6862 8.29378L13.8525 9.26128C13.7074 9.28985 13.5741 9.36126 13.47 9.46628L3.05498 19.8838C2.53936 20.3995 2.24969 21.0989 2.24969 21.8282C2.24969 22.5574 2.53936 23.2568 3.05498 23.7725L8.22748 28.945C8.74319 29.4607 9.4426 29.7503 10.1719 29.7503C10.9011 29.7503 11.6005 29.4607 12.1162 28.945L22.53 18.53C22.635 18.4259 22.7064 18.2927 22.735 18.1475L23.7025 13.3138L29.0775 6.14128L29.4662 6.53003C29.6084 6.66251 29.7965 6.73463 29.9908 6.7312C30.1851 6.72778 30.3704 6.64906 30.5079 6.51165C30.6453 6.37424 30.724 6.18885 30.7274 5.99455C30.7308 5.80025 30.6587 5.6122 30.5262 5.47003H30.53ZM11.055 27.8838C10.8206 28.1181 10.5027 28.2498 10.1712 28.2498C9.83978 28.2498 9.52189 28.1181 9.28748 27.8838L4.11623 22.7125C3.88189 22.4781 3.75025 22.1602 3.75025 21.8288C3.75025 21.4973 3.88189 21.1794 4.11623 20.945L4.99998 20.0613L11.9387 27L11.055 27.8838ZM13 25.9388L6.06123 19L12 13.0613L18.9387 20L13 25.9388ZM22.4 12.55C22.3326 12.6393 22.2864 12.7427 22.265 12.8525L21.3087 17.625L20 18.9388L13.0612 12L14.375 10.6913L19.1525 9.73503C19.2623 9.71363 19.3657 9.66746 19.455 9.60003L26.935 3.99003L28.015 5.07003L22.4 12.55Z" fill="current" stroke="current" stroke-width="current"/>
</svg>
