<svg width="30" height="32" viewBox="0 0 30 32" fill="current" xmlns="http://www.w3.org/2000/svg">
<path fill-rule="evenodd" clip-rule="evenodd" d="M23.4332 5.19743C23.4339 5.19765 23.4345 5.19799 23.4357 5.19928L25.1258 7.00209C25.127 7.00337 25.1274 7.00396 25.1276 7.00471C25.1278 7.00542 25.1278 7.00617 25.1276 7.00687C25.1274 7.00759 25.127 7.00818 25.1258 7.00946L16.697 16.0002L25.1258 24.9909C25.127 24.9921 25.1274 24.9928 25.1276 24.9935C25.1278 24.9942 25.1278 24.995 25.1276 24.9957C25.1274 24.9964 25.127 24.997 25.1258 24.9983L23.4357 26.8011C23.4345 26.8024 23.4339 26.8027 23.4332 26.8029C23.4326 26.8031 23.4319 26.8031 23.4312 26.8029C23.4305 26.8027 23.43 26.8024 23.4288 26.8011L15 17.8104L6.57119 26.8011C6.57002 26.8024 6.56943 26.8027 6.56876 26.8029C6.56809 26.8032 6.56737 26.8032 6.56671 26.8029C6.56606 26.8027 6.56548 26.8024 6.56427 26.8011L4.87414 24.9983C4.87294 24.997 4.87261 24.9964 4.87241 24.9956C4.87221 24.9949 4.87221 24.9942 4.87241 24.9935C4.87261 24.9928 4.87294 24.9922 4.87414 24.9909L13.3029 16.0002L4.87414 7.00946C4.87294 7.00821 4.87261 7.00759 4.87241 7.00687C4.8722 7.00616 4.8722 7.00539 4.87241 7.00468C4.87261 7.00399 4.87294 7.00337 4.87414 7.00209L6.56427 5.19928C6.56548 5.19799 6.56603 5.19765 6.56674 5.19743C6.56739 5.19722 6.5681 5.19722 6.56876 5.19743C6.56943 5.19765 6.56999 5.19799 6.57119 5.19928L15 14.19L23.4288 5.19928C23.43 5.19799 23.4305 5.19765 23.4312 5.19743C23.4319 5.19721 23.4326 5.19721 23.4333 5.19743H23.4332Z" fill="current"/>
</svg>
