<svg width="36" height="36" viewBox="0 0 36 36" fill="none" xmlns="http://www.w3.org/2000/svg">
    <path
        d="M13.5 18C13.5 19.1935 13.9741 20.3381 14.818 21.182C15.6619 22.0259 16.8065 22.5 18 22.5C19.1935 22.5 20.3381 22.0259 21.182 21.182C22.0259 20.3381 22.5 19.1935 22.5 18C22.5 16.8065 22.0259 15.6619 21.182 14.818C20.3381 13.9741 19.1935 13.5 18 13.5C16.8065 13.5 15.6619 13.9741 14.818 14.818C13.9741 15.6619 13.5 16.8065 13.5 18Z"
        stroke="current" stroke-width="3" stroke-linecap="round" stroke-linejoin="round" />
    <path
        d="M6 18C6 21.1826 7.26428 24.2348 9.51472 26.4853C11.7652 28.7357 14.8174 30 18 30C21.1826 30 24.2348 28.7357 26.4853 26.4853C28.7357 24.2348 30 21.1826 30 18C30 14.8174 28.7357 11.7652 26.4853 9.51472C24.2348 7.26428 21.1826 6 18 6C14.8174 6 11.7652 7.26428 9.51472 9.51472C7.26428 11.7652 6 14.8174 6 18Z"
        stroke="current" stroke-width="3" stroke-linecap="round" stroke-linejoin="round" />
    <path d="M18 3V6" stroke="current" stroke-width="3" stroke-linecap="round" stroke-linejoin="round" />
    <path d="M18 30V33" stroke="current" stroke-width="3" stroke-linecap="round" stroke-linejoin="round" />
    <path d="M30 18H33" stroke="current" stroke-width="3" stroke-linecap="round" stroke-linejoin="round" />
    <path d="M3 18H6" stroke="current" stroke-width="3" stroke-linecap="round" stroke-linejoin="round" />
</svg>