<svg width="36" height="36" viewBox="0 0 36 36" fill="current" xmlns="http://www.w3.org/2000/svg">
<path d="M29.9072 12H31.5C33.1569 12 34.5 13.3431 34.5 15V21C34.5 22.6569 33.1569 24 31.5 24H29.9072C29.169 29.9195 24.1194 34.5 18 34.5V31.5C22.9706 31.5 27 27.4706 27 22.5V13.5C27 8.52944 22.9706 4.5 18 4.5C13.0294 4.5 9 8.52944 9 13.5V24H4.5C2.84314 24 1.5 22.6569 1.5 21V15C1.5 13.3431 2.84314 12 4.5 12H6.09284C6.83099 6.08053 11.8806 1.5 18 1.5C24.1194 1.5 29.169 6.08053 29.9072 12ZM4.5 15V21H6V15H4.5ZM30 15V21H31.5V15H30ZM11.6392 23.6773L13.2294 21.1331C14.6124 21.9993 16.2477 22.5 18 22.5C19.7523 22.5 21.3876 21.9993 22.7706 21.1331L24.3609 23.6773C22.5168 24.8323 20.3364 25.5 18 25.5C15.6636 25.5 13.4832 24.8323 11.6392 23.6773Z" fill="current"/>
</svg>
