<svg width="48" height="48" viewBox="0 0 48 48" fill="none" xmlns="http://www.w3.org/2000/svg">
<circle cx="24" cy="24" r="24" fill="current"/>
<path d="M37.5351 33.8281C36.7983 32.0827 35.7289 30.4973 34.3867 29.1602C33.0485 27.8192 31.4634 26.75 29.7187 26.0117C29.7031 26.0039 29.6875 26 29.6719 25.9922C32.1054 24.2344 33.6875 21.3711 33.6875 18.1406C33.6875 12.7891 29.3515 8.45312 24 8.45312C18.6484 8.45312 14.3125 12.7891 14.3125 18.1406C14.3125 21.3711 15.8945 24.2344 18.3281 25.9961C18.3125 26.0039 18.2969 26.0078 18.2812 26.0156C16.5312 26.7539 14.9609 27.8125 13.6133 29.1641C12.2723 30.5022 11.2031 32.0874 10.4648 33.832C9.73952 35.5401 9.34834 37.3713 9.31248 39.2266C9.31143 39.2683 9.31875 39.3097 9.33398 39.3486C9.34922 39.3874 9.37207 39.4228 9.4012 39.4526C9.43032 39.4825 9.46512 39.5062 9.50355 39.5224C9.54199 39.5386 9.58327 39.5469 9.62498 39.5469H11.9687C12.1406 39.5469 12.2773 39.4102 12.2812 39.2422C12.3594 36.2266 13.5703 33.4023 15.7109 31.2617C17.9258 29.0469 20.8672 27.8281 24 27.8281C27.1328 27.8281 30.0742 29.0469 32.289 31.2617C34.4297 33.4023 35.6406 36.2266 35.7187 39.2422C35.7226 39.4141 35.8594 39.5469 36.0312 39.5469H38.375C38.4167 39.5469 38.458 39.5386 38.4964 39.5224C38.5348 39.5062 38.5696 39.4825 38.5988 39.4526C38.6279 39.4228 38.6507 39.3874 38.666 39.3486C38.6812 39.3097 38.6885 39.2683 38.6875 39.2266C38.6484 37.3594 38.2617 35.543 37.5351 33.8281ZM24 24.8594C22.207 24.8594 20.5195 24.1602 19.25 22.8906C17.9804 21.6211 17.2812 19.9336 17.2812 18.1406C17.2812 16.3477 17.9804 14.6602 19.25 13.3906C20.5195 12.1211 22.207 11.4219 24 11.4219C25.7929 11.4219 27.4804 12.1211 28.75 13.3906C30.0195 14.6602 30.7187 16.3477 30.7187 18.1406C30.7187 19.9336 30.0195 21.6211 28.75 22.8906C27.4804 24.1602 25.7929 24.8594 24 24.8594Z" fill="current"/>
</svg>
