<svg width="32" height="28" viewBox="0 0 32 28" fill="none" xmlns="http://www.w3.org/2000/svg">
<path d="M30.4492 5.97031C29.978 4.87919 29.2985 3.89042 28.4488 3.05937C27.5985 2.22584 26.596 1.56344 25.4957 1.1082C24.3548 0.634267 23.1311 0.391682 21.8957 0.394525C20.1625 0.394525 18.4715 0.869135 17.002 1.76562C16.6504 1.98007 16.3164 2.21562 16 2.47226C15.6836 2.21562 15.3496 1.98007 14.998 1.76562C13.5285 0.869135 11.8375 0.394525 10.1043 0.394525C8.85625 0.394525 7.64687 0.633588 6.5043 1.1082C5.40039 1.56523 4.40547 2.22265 3.55117 3.05937C2.70038 3.88949 2.02074 4.87848 1.55078 5.97031C1.06211 7.10585 0.8125 8.31171 0.8125 9.55273C0.8125 10.7234 1.05156 11.9434 1.52617 13.1844C1.92344 14.2215 2.49297 15.2973 3.2207 16.3836C4.37383 18.1027 5.95937 19.8957 7.92812 21.7133C11.1906 24.7262 14.4215 26.8074 14.5586 26.8918L15.3918 27.4262C15.7609 27.6617 16.2355 27.6617 16.6047 27.4262L17.4379 26.8918C17.575 26.8039 20.8023 24.7262 24.0684 21.7133C26.0371 19.8957 27.6227 18.1027 28.7758 16.3836C29.5035 15.2973 30.0766 14.2215 30.4703 13.1844C30.9449 11.9434 31.184 10.7234 31.184 9.55273C31.1875 8.31171 30.9379 7.10585 30.4492 5.97031Z" fill="#D92B04"/>
</svg>
