<svg width="16" height="16" viewBox="0 0 16 16" fill="none" xmlns="http://www.w3.org/2000/svg">
<path d="M8.00016 1.33333C4.32416 1.33333 1.3335 4.324 1.3335 8C1.3335 11.676 4.32416 14.6667 8.00016 14.6667C11.6762 14.6667 14.6668 11.676 14.6668 8C14.6668 4.324 11.6762 1.33333 8.00016 1.33333ZM8.00016 13.3333C5.0595 13.3333 2.66683 10.9407 2.66683 8C2.66683 5.05933 5.0595 2.66667 8.00016 2.66667C10.9408 2.66667 13.3335 5.05933 13.3335 8C13.3335 10.9407 10.9408 13.3333 8.00016 13.3333Z" fill="current"/>
<path d="M7.3335 7.33333H8.66683V11.3333H7.3335V7.33333ZM7.3335 4.66667H8.66683V6H7.3335V4.66667Z" fill="current"/>
</svg>
