<svg width="32" height="32" viewBox="0 0 32 32" fill="current" xmlns="http://www.w3.org/2000/svg">
    <path
        d="M16 18.6667C18.9413 18.6667 21.3333 16.2747 21.3333 13.3333C21.3333 10.392 18.9413 8 16 8C13.0587 8 10.6667 10.392 10.6667 13.3333C10.6667 16.2747 13.0587 18.6667 16 18.6667ZM16 10.6667C17.4707 10.6667 18.6667 11.8627 18.6667 13.3333C18.6667 14.804 17.4707 16 16 16C14.5293 16 13.3333 14.804 13.3333 13.3333C13.3333 11.8627 14.5293 10.6667 16 10.6667Z"
        fill="current" />
    <path
        d="M15.2267 29.0854C15.4523 29.2465 15.7227 29.3331 16 29.3331C16.2773 29.3331 16.5477 29.2465 16.7733 29.0854C17.1787 28.7987 26.7053 21.92 26.6667 13.3334C26.6667 7.45202 21.8813 2.66669 16 2.66669C10.1187 2.66669 5.33334 7.45202 5.33334 13.3267C5.29467 21.92 14.8213 28.7987 15.2267 29.0854ZM16 5.33335C20.412 5.33335 24 8.92135 24 13.34C24.028 19.2574 18.1493 24.5707 16 26.3134C13.852 24.5694 7.972 19.2547 8 13.3334C8 8.92135 11.588 5.33335 16 5.33335Z"
        fill="current" />
</svg>