<svg width="46" height="46" viewBox="0 0 46 46" fill="current" xmlns="http://www.w3.org/2000/svg">
<g clip-path="url(#clip0_41_120)">
<path d="M24.5794 15.1513L17.3424 16.5987L9.42812 24.513L20.7418 35.8267L32.9983 23.5702L24.5794 15.1513ZM25.4559 12.2565L35.8268 22.6274C36.3475 23.1481 36.3475 23.9923 35.8268 24.513L21.6846 38.6552C21.1639 39.1759 20.3197 39.1759 19.799 38.6552L6.59969 25.4558C6.079 24.9352 6.07898 24.0909 6.59969 23.5702L16.0278 14.1421L25.4559 12.2565ZM33.9412 13.1993L38.6552 17.9134C39.1759 18.4341 39.1759 19.2783 38.6552 19.799L36.7696 21.6846L30.1699 15.0849L32.0555 13.1993C32.5762 12.6786 33.4204 12.6786 33.9412 13.1993ZM18.8562 18.8562L20.7418 20.7418L15.085 26.3987L13.1994 24.513L18.8562 18.8562Z" fill="current"/>
</g>
<defs>
<clipPath id="clip0_41_120">
<rect width="32" height="32" fill="current" transform="translate(22.6274) rotate(45)"/>
</clipPath>
</defs>
</svg>
