<svg width="32" height="32" viewBox="0 0 32 32" fill="current" xmlns="http://www.w3.org/2000/svg">
    <g clip-path="url(#clip0_41_123)">
        <path
            d="M22.04 10.728C23.1502 9.59981 23.7697 8.07863 23.7634 6.49581C23.7571 4.91299 23.1257 3.39676 22.0066 2.27739C20.8875 1.15803 19.3714 0.526215 17.7886 0.519584C16.2058 0.512953 14.6844 1.13204 13.556 2.24199L2.24201 13.556C1.11669 14.6813 0.484497 16.2076 0.484497 17.799C0.484497 19.3904 1.11669 20.9167 2.24201 22.042C3.36732 23.1673 4.89357 23.7995 6.48501 23.7995C8.07644 23.7995 9.60269 23.1673 10.728 22.042L22.04 10.728ZM9.214 9.41399L14.97 3.65599C15.7203 2.90569 16.7379 2.48418 17.799 2.48418C18.8601 2.48418 19.8777 2.90569 20.628 3.65599C21.3783 4.40629 21.7998 5.42391 21.7998 6.48499C21.7998 7.54607 21.3783 8.56369 20.628 9.31399L14.87 15.072L9.214 9.41399ZM24 16C26.1217 16 28.1566 16.8428 29.6569 18.3431C31.1572 19.8434 32 21.8783 32 24C32 26.1217 31.1572 28.1566 29.6569 29.6568C28.1566 31.1571 26.1217 32 24 32C21.8783 32 19.8434 31.1571 18.3432 29.6568C16.8429 28.1566 16 26.1217 16 24C16 21.8783 16.8429 19.8434 18.3432 18.3431C19.8434 16.8428 21.8783 16 24 16ZM23 18.084C21.6008 18.3192 20.3301 19.0426 19.4138 20.1259C18.4974 21.2092 17.9945 22.5821 17.9945 24.001C17.9945 25.4199 18.4974 26.7928 19.4138 27.8761C20.3301 28.9593 21.6008 29.6828 23 29.918V18.084ZM25 29.918C26.3993 29.6828 27.6699 28.9593 28.5863 27.8761C29.5026 26.7928 30.0055 25.4199 30.0055 24.001C30.0055 22.5821 29.5026 21.2092 28.5863 20.1259C27.6699 19.0426 26.3993 18.3192 25 18.084V29.918Z"
            fill="current" />
    </g>
    <defs>
        <clipPath id="clip0_41_123">
            <rect width="32" height="32" fill="current" />
        </clipPath>
    </defs>
</svg>