<?xml version="1.0" standalone="no"?>
<!DOCTYPE svg PUBLIC "-//W3C//DTD SVG 20010904//EN"
 "http://www.w3.org/TR/2001/REC-SVG-20010904/DTD/svg10.dtd">
<svg version="1.0" xmlns="http://www.w3.org/2000/svg"
 width="current" height="current" viewBox="0 0 344.000000 393.000000"
 preserveAspectRatio="xMidYMid meet">

<g transform="translate(0.000000,393.000000) scale(0.100000,-0.100000)"
fill="current" stroke="none">
<path d="M1010 3571 c-94 -15 -106 -36 -97 -165 12 -154 64 -289 163 -417 83
-108 213 -179 362 -198 45 -6 89 -8 97 -5 15 6 16 -2 20 -283 l0 -38 -523 -5
-524 -5 -29 -33 -29 -32 0 -183 c0 -160 2 -186 19 -213 25 -41 81 -67 137 -62
24 2 44 2 44 1 0 -9 82 -477 120 -688 27 -148 59 -328 70 -400 11 -71 23 -145
26 -163 l5 -32 -188 0 c-103 0 -205 -5 -225 -10 -68 -19 -87 -76 -42 -129 l26
-31 1158 0 1158 0 31 26 c40 34 42 80 5 115 -25 24 -29 24 -222 26 -184 2
-197 3 -195 20 8 67 42 272 89 538 31 171 69 387 85 480 17 94 33 188 37 209
l7 39 58 2 c62 2 102 23 124 66 9 16 13 82 13 206 l0 183 -29 32 -29 33 -499
5 -498 5 -3 145 -3 145 87 -4 c268 -11 456 167 495 467 18 143 -8 170 -161
171 -150 1 -307 -53 -403 -139 -26 -23 -49 -41 -50 -39 -1 2 -15 31 -32 64
-60 123 -224 244 -376 279 -79 18 -219 27 -279 17z m201 -181 c85 -16 173 -66
237 -135 68 -72 101 -147 109 -248 6 -68 6 -68 -18 -63 -13 3 -46 11 -73 16
-133 29 -250 124 -312 254 -36 75 -52 142 -41 171 7 18 25 19 98 5z m883 -186
c9 -4 16 -18 16 -33 -1 -73 -98 -197 -178 -228 -46 -17 -173 -25 -187 -11 -13
12 34 98 81 149 58 61 110 93 184 113 66 18 64 17 84 10z m343 -1120 c28 -28
29 -64 5 -94 l-18 -22 -499 1 c-301 1 -505 6 -517 12 -41 22 -31 101 14 118
13 5 241 9 508 8 l485 -1 22 -22z m-97 -306 c26 -28 26 -66 -2 -95 l-21 -23
-694 0 c-680 0 -693 0 -713 20 -29 29 -30 72 -3 103 15 16 62 17 714 17 l698
0 21 -22z"/>
</g>
</svg>
