<svg width="32" height="33" viewBox="0 0 32 33" fill="none" xmlns="http://www.w3.org/2000/svg">
<g clip-path="url(#clip0_318_171)">
<path d="M13.268 2.77001C15.2983 2.36604 17.3929 2.41735 19.401 2.92023C21.4091 3.42311 23.2806 4.36504 24.8809 5.6782C26.4812 6.99136 27.7703 8.64305 28.6555 10.5143C29.5407 12.3856 29.9999 14.4299 30 16.5C30 16.7652 29.8947 17.0196 29.7071 17.2071C29.5196 17.3947 29.2652 17.5 29 17.5C28.7348 17.5 28.4805 17.3947 28.2929 17.2071C28.1054 17.0196 28 16.7652 28 16.5C27.9997 14.1693 27.3206 11.8892 26.0458 9.93805C24.771 7.98691 22.9556 6.44925 20.8213 5.51285C18.687 4.57646 16.3262 4.28186 14.0272 4.66503C11.7282 5.0482 9.59057 6.09257 7.87535 7.67057C6.16013 9.24858 4.94156 11.2919 4.36846 13.5511C3.79536 15.8102 3.89255 18.1873 4.64815 20.3921C5.40376 22.5969 6.78506 24.534 8.62338 25.9667C10.4617 27.3994 12.6775 28.2658 15 28.46V26.45C13.0746 26.2565 11.2466 25.5084 9.73784 24.2966C8.22909 23.0848 7.10437 21.4612 6.50008 19.6228C5.89579 17.7844 5.8379 15.8101 6.33343 13.9395C6.82896 12.0688 7.85662 10.3821 9.29178 9.08398C10.7269 7.78581 12.5079 6.93195 14.4187 6.62595C16.3296 6.31994 18.2881 6.57494 20.0569 7.36002C21.8257 8.14509 23.3287 9.42652 24.3836 11.0489C25.4385 12.6712 26 14.5648 26 16.5C26 16.7652 25.8947 17.0196 25.7071 17.2071C25.5196 17.3947 25.2652 17.5 25 17.5C24.7348 17.5 24.4805 17.3947 24.2929 17.2071C24.1054 17.0196 24 16.7652 24 16.5C23.9999 14.9605 23.5555 13.4537 22.7202 12.1604C21.885 10.8671 20.6943 9.84235 19.291 9.20902C17.8878 8.57569 16.3316 8.36071 14.8092 8.58988C13.2868 8.81905 11.8629 9.48263 10.7082 10.501C9.55363 11.5194 8.71739 12.8493 8.29986 14.3311C7.88232 15.813 7.90124 17.3838 8.35433 18.8552C8.80743 20.3265 9.67545 21.6359 10.8543 22.6262C12.0331 23.6165 13.4726 24.2456 15 24.438V22.416C13.8727 22.225 12.8235 21.7158 11.976 20.9483C11.1285 20.1809 10.518 19.1872 10.2164 18.0843C9.91485 16.9814 9.93479 15.8153 10.2739 14.7234C10.613 13.6315 11.2571 12.6592 12.1304 11.9212C13.0036 11.1832 14.0696 10.7101 15.2028 10.5578C16.336 10.4054 17.4891 10.5801 18.5262 11.0613C19.5634 11.5425 20.4415 12.3101 21.0569 13.2737C21.6724 14.2372 21.9996 15.3566 22 16.5C22 16.7652 21.8947 17.0196 21.7071 17.2071C21.5196 17.3947 21.2652 17.5 21 17.5C20.7348 17.5 20.4805 17.3947 20.2929 17.2071C20.1054 17.0196 20 16.7652 20 16.5C20.0002 15.7518 19.7906 15.0186 19.3949 14.3836C18.9992 13.7486 18.4334 13.2373 17.7617 12.9078C17.09 12.5783 16.3393 12.4438 15.595 12.5196C14.8506 12.5954 14.1425 12.8784 13.5509 13.3364C12.9594 13.7945 12.5082 14.4093 12.2486 15.111C11.9889 15.8127 11.9313 16.5732 12.0823 17.306C12.2332 18.0388 12.5866 18.7145 13.1024 19.2565C13.6182 19.7985 14.2756 20.185 15 20.372V18.232C14.6187 18.0119 14.3208 17.6721 14.1523 17.2653C13.9838 16.8586 13.9542 16.4076 14.0682 15.9823C14.1821 15.5571 14.4332 15.1813 14.7825 14.9132C15.1318 14.6452 15.5598 14.5 16 14.5C16.4403 14.5 16.8683 14.6452 17.2176 14.9132C17.5668 15.1813 17.8179 15.5571 17.9319 15.9823C18.0458 16.4076 18.0163 16.8586 17.8478 17.2653C17.6793 17.6721 17.3813 18.0119 17 18.232V31.5C17 31.7652 16.8947 32.0196 16.7071 32.2071C16.5196 32.3947 16.2652 32.5 16 32.5C15.7348 32.5 15.4805 32.3947 15.2929 32.2071C15.1054 32.0196 15 31.7652 15 31.5V30.464C11.6203 30.221 8.44336 28.7605 6.05854 26.3533C3.67371 23.9462 2.24285 20.7558 2.03134 17.3739C1.81984 13.9921 2.84205 10.6482 4.90838 7.96272C6.9747 5.27719 9.94489 3.43222 13.268 2.77001Z" fill="current"/>
</g>
<defs>
<clipPath id="clip0_318_171">
<rect width="32" height="32" fill="white" transform="translate(0 0.5)"/>
</clipPath>
</defs>
</svg>
