<svg width="36" height="36" viewBox="0 0 36 36" fill="none" xmlns="http://www.w3.org/2000/svg">
<path d="M17.9998 32.8785C17.5791 32.8794 17.167 32.7585 16.8133 32.5305L14.4673 30.999C14.3693 30.9388 14.2581 30.9035 14.1433 30.8962C14.0285 30.8889 13.9137 30.9097 13.8088 30.957L11.1448 32.2005C10.8118 32.356 10.4451 32.4255 10.0782 32.4027C9.71137 32.3799 9.35608 32.2655 9.04484 32.07C8.78206 31.9094 8.56428 31.6849 8.41187 31.4173C8.25946 31.1497 8.17739 30.8479 8.17334 30.54V5.46147C8.17803 5.15297 8.26084 4.85069 8.41403 4.58286C8.56722 4.31504 8.7858 4.09042 9.04934 3.92997C9.36073 3.73483 9.71598 3.62067 10.0828 3.59788C10.4495 3.57509 10.8162 3.64439 11.1493 3.79947L13.8118 5.04297C13.9164 5.09079 14.0311 5.11224 14.1459 5.10544C14.2607 5.09864 14.3721 5.0638 14.4703 5.00397L16.8148 3.46947C17.1687 3.24249 17.5802 3.12183 18.0006 3.12183C18.421 3.12183 18.8325 3.24249 19.1863 3.46947L21.5323 5.00247C21.6307 5.06255 21.7424 5.09753 21.8575 5.10434C21.9726 5.11114 22.0876 5.08955 22.1923 5.04147L24.8548 3.79797C25.1877 3.64181 25.5545 3.57191 25.9215 3.59472C26.2885 3.61752 26.6439 3.7323 26.9548 3.92847C27.2175 4.08946 27.4352 4.31432 27.5876 4.58211C27.74 4.84989 27.8221 5.15189 27.8263 5.45997V30.54C27.822 30.8478 27.7398 31.1496 27.5874 31.4171C27.4351 31.6846 27.2174 31.9092 26.9548 32.07C26.6439 32.2663 26.2885 32.3811 25.9215 32.4039C25.5545 32.4267 25.1877 32.3568 24.8548 32.2005L22.1998 30.9585C22.0946 30.911 21.9793 30.8899 21.8641 30.8969C21.7488 30.904 21.637 30.939 21.5383 30.999L19.1923 32.5305C18.8372 32.7601 18.4227 32.881 17.9998 32.8785ZM14.0998 29.4C14.5206 29.3991 14.9325 29.5211 15.2848 29.751L17.6308 31.281C17.7406 31.3487 17.8671 31.3845 17.9961 31.3845C18.1251 31.3845 18.2515 31.3487 18.3613 31.281L20.7088 29.7495C21.0206 29.5489 21.3781 29.4306 21.748 29.4057C22.1178 29.3808 22.488 29.45 22.8238 29.607L25.4848 30.849C25.5886 30.8975 25.7027 30.9196 25.8171 30.9133C25.9315 30.907 26.0425 30.8726 26.1403 30.813C26.1898 30.7872 26.2319 30.7493 26.2629 30.7029C26.2938 30.6565 26.3126 30.603 26.3173 30.5475V5.46147C26.3128 5.40582 26.2942 5.35224 26.2632 5.30579C26.2323 5.25933 26.19 5.22154 26.1403 5.19597C26.0427 5.13589 25.9317 5.10101 25.8173 5.09446C25.7029 5.08792 25.5887 5.10991 25.4848 5.15847L22.8223 6.40197C22.4868 6.5592 22.1169 6.62861 21.7472 6.60368C21.3775 6.57876 21.0202 6.46032 20.7088 6.25947L18.3643 4.72647C18.2545 4.65956 18.1284 4.62417 17.9998 4.62417C17.8713 4.62417 17.7451 4.65956 17.6353 4.72647L15.2878 6.25797C14.9765 6.45909 14.6193 6.57829 14.2496 6.60451C13.8799 6.63073 13.5095 6.56313 13.1728 6.40797L10.5103 5.15847C10.4065 5.10991 10.2923 5.08792 10.1779 5.09446C10.0634 5.10101 9.95244 5.13589 9.85484 5.19597C9.80521 5.22154 9.76291 5.25933 9.73194 5.30579C9.70097 5.35224 9.68235 5.40582 9.67784 5.46147V30.54C9.68262 30.5955 9.70135 30.649 9.73229 30.6954C9.76323 30.7418 9.80538 30.7797 9.85484 30.8055C9.95289 30.8644 10.0639 30.8985 10.1781 30.9048C10.2924 30.9111 10.4064 30.8893 10.5103 30.8415L13.1743 29.598C13.4647 29.4653 13.7806 29.3978 14.0998 29.4Z" fill="black"/>
<path d="M22.5687 11.1H13.4307C13.2318 11.1 13.041 11.021 12.9003 10.8803C12.7597 10.7397 12.6807 10.5489 12.6807 10.35C12.6807 10.1511 12.7597 9.9603 12.9003 9.81965C13.041 9.67899 13.2318 9.59998 13.4307 9.59998H22.5687C22.7676 9.59998 22.9583 9.67899 23.099 9.81965C23.2396 9.9603 23.3187 10.1511 23.3187 10.35C23.3187 10.5489 23.2396 10.7397 23.099 10.8803C22.9583 11.021 22.7676 11.1 22.5687 11.1Z" fill="black"/>
<path d="M22.5687 16.4294H13.4307C13.2318 16.4294 13.041 16.3504 12.9003 16.2098C12.7597 16.0691 12.6807 15.8784 12.6807 15.6794C12.6807 15.4805 12.7597 15.2898 12.9003 15.1491C13.041 15.0085 13.2318 14.9294 13.4307 14.9294H22.5687C22.7676 14.9294 22.9583 15.0085 23.099 15.1491C23.2396 15.2898 23.3187 15.4805 23.3187 15.6794C23.3187 15.8784 23.2396 16.0691 23.099 16.2098C22.9583 16.3504 22.7676 16.4294 22.5687 16.4294Z" fill="black"/>
<path d="M17.9997 21.75H13.4307C13.2318 21.75 13.041 21.671 12.9003 21.5303C12.7597 21.3897 12.6807 21.1989 12.6807 21C12.6807 20.8011 12.7597 20.6103 12.9003 20.4697C13.041 20.329 13.2318 20.25 13.4307 20.25H17.9997C18.1986 20.25 18.3893 20.329 18.53 20.4697C18.6706 20.6103 18.7497 20.8011 18.7497 21C18.7497 21.1989 18.6706 21.3897 18.53 21.5303C18.3893 21.671 18.1986 21.75 17.9997 21.75Z" fill="black"/>
</svg>
