<svg width="32" height="32" viewBox="0 0 32 32" fill="current" xmlns="http://www.w3.org/2000/svg">
<path d="M28.2987 20.7242L27.2147 18.7722L24.884 20.0682L25.9667 22.0162C26.0307 22.1296 26.076 22.2469 26.1053 22.3682C26.1543 22.5886 26.1479 22.8176 26.0867 23.0349C26.0543 23.1449 26.0077 23.2503 25.948 23.3482C25.8355 23.5409 25.6764 23.7023 25.4853 23.8176C25.2785 23.9404 25.0418 24.0036 24.8013 24.0002H18.6667V21.3336L13.3333 25.3336L18.6667 29.3336V26.6669H24.8013C25.172 26.6669 25.5373 26.6176 25.8827 26.5216C26.5497 26.3375 27.1564 25.9806 27.6413 25.4869C27.8787 25.2482 28.084 24.9802 28.2493 24.6962C28.7755 23.807 28.9361 22.7482 28.6973 21.7429C28.6092 21.3875 28.4752 21.0451 28.2987 20.7242ZM7.816 14.7189L4.736 20.8789C4.57651 21.1978 4.45951 21.5363 4.388 21.8856C4.25771 22.5398 4.29329 23.2163 4.49148 23.8532C4.68968 24.4902 5.04418 25.0674 5.52267 25.5322C5.76 25.7642 6.024 25.9669 6.316 26.1362C6.92471 26.484 7.61362 26.6669 8.31467 26.6669H10.6667V24.0002H8.31467C8.08122 24.0009 7.85158 23.9412 7.648 23.8269C7.45356 23.7151 7.2914 23.5547 7.17733 23.3616C7.06027 23.1733 6.99199 22.9589 6.97867 22.7376C6.97223 22.6281 6.9803 22.5183 7.00267 22.4109C7.02667 22.2949 7.06667 22.1802 7.12133 22.0696L10.1293 16.0536L12.2613 17.2842L11.464 10.6669L5.33333 13.2856L7.816 14.7189ZM24.7973 17.2856L25.5947 10.6669L23.4107 11.9269L19.62 5.10424C19.3554 4.61898 18.9915 4.19493 18.552 3.85974C18.1125 3.52455 17.6073 3.28575 17.0693 3.15891C16.7319 3.08073 16.3863 3.04357 16.04 3.04824C15.335 3.06146 14.646 3.26062 14.0427 3.62558C13.3987 4.01647 12.8796 4.58313 12.5467 5.25891L11.5707 7.21091L13.956 8.40424L14.932 6.45091C14.992 6.33091 15.0667 6.22291 15.1533 6.12824C15.3122 5.95482 15.517 5.82999 15.744 5.76824C15.9745 5.70317 16.2177 5.69812 16.4507 5.75358C16.6286 5.79535 16.7957 5.87465 16.9405 5.98618C17.0854 6.0977 17.2048 6.23887 17.2907 6.40024L21.1013 13.2616L18.6667 14.6669L24.7973 17.2856Z" fill="current"/>
</svg>
