<svg width="24" height="24" viewBox="0 0 24 24" fill="current" xmlns="http://www.w3.org/2000/svg">
<g clip-path="url(#clip0_92_131)">
<path d="M23.781 0.219225C23.8848 0.323223 23.9558 0.455436 23.9852 0.599441C24.0145 0.743445 24.0009 0.892895 23.946 1.02922L15.2175 22.8497C15.1406 23.0419 15.0121 23.2091 14.8463 23.333C14.6805 23.4568 14.4837 23.5326 14.2776 23.5518C14.0715 23.571 13.8641 23.533 13.6782 23.442C13.4923 23.3509 13.3351 23.2103 13.224 23.0357L8.45699 15.5432L0.964489 10.7762C0.789466 10.6652 0.648516 10.508 0.557194 10.3219C0.465871 10.1359 0.427726 9.92818 0.446967 9.7218C0.466207 9.51543 0.542086 9.31839 0.66623 9.15241C0.790375 8.98643 0.957958 8.85798 1.15049 8.78123L22.971 0.0557246C23.1073 0.000843041 23.2568 -0.0127765 23.4008 0.0165577C23.5448 0.045892 23.677 0.116887 23.781 0.220725V0.219225ZM9.95399 15.1052L14.0955 21.6122L21.195 3.86422L9.95399 15.1052ZM20.1345 2.80372L2.38649 9.90322L8.89499 14.0432L20.1345 2.80372Z" fill="current"/>
</g>
<defs>
<clipPath id="clip0_92_131">
<rect width="24" height="24" fill="current"/>
</clipPath>
</defs>
</svg>
