<?xml version="1.0" standalone="no"?>
<!DOCTYPE svg PUBLIC "-//W3C//DTD SVG 20010904//EN"
 "http://www.w3.org/TR/2001/REC-SVG-20010904/DTD/svg10.dtd">
<svg version="1.0" xmlns="http://www.w3.org/2000/svg"
 width="current" height="current" viewBox="0 0 268.000000 331.000000"
 preserveAspectRatio="xMidYMid meet">

<g transform="translate(0.000000,331.000000) scale(0.100000,-0.100000)"
fill="current" stroke="none">
<path d="M615 2901 c-42 -18 -48 -36 -42 -134 12 -209 142 -431 300 -511 61
-30 157 -50 202 -42 29 6 35 2 58 -31 37 -54 84 -158 102 -227 29 -114 35
-224 35 -638 l0 -418 -22 0 c-45 0 -156 -33 -233 -70 -92 -45 -202 -135 -260
-214 l-40 -55 -255 -1 c-218 0 -259 -2 -278 -16 -56 -39 -44 -123 20 -142 21
-7 416 -9 1140 -8 l1107 2 25 24 c35 32 35 82 1 115 l-24 25 -234 0 -235 0
-55 69 c-101 125 -256 222 -409 257 l-78 18 0 176 0 175 57 76 56 76 96 -1
c92 -1 100 1 172 36 103 51 186 138 239 251 46 98 70 183 70 248 0 40 -4 51
-27 69 -25 20 -35 21 -107 15 -232 -20 -419 -124 -496 -277 -25 -51 -30 -73
-30 -134 0 -60 -3 -75 -17 -83 -17 -8 -18 2 -19 158 -3 268 -44 429 -157 608
-34 54 -55 97 -51 106 9 26 -16 128 -48 191 -33 66 -117 154 -192 204 -99 65
-317 125 -371 103z m276 -267 c81 -41 172 -154 167 -206 -4 -46 -28 -56 -78
-33 -73 33 -180 158 -180 210 0 44 38 57 91 29z m984 -874 c14 -43 -82 -149
-152 -170 -62 -19 -87 -11 -91 28 -4 41 24 81 86 124 87 60 142 66 157 18z"/>
<path d="M1840 2881 c-176 -48 -327 -160 -398 -296 -24 -44 -27 -61 -27 -151
0 -95 2 -103 28 -137 16 -21 39 -45 52 -53 131 -86 370 35 470 239 71 144 107
364 67 400 -24 22 -107 21 -192 -2z m-32 -243 c39 -39 -22 -147 -122 -214 -74
-50 -126 -43 -126 16 1 48 56 119 134 171 60 40 93 48 114 27z"/>
</g>
</svg>
