<svg width="32" height="33" viewBox="0 0 32 33" fill="none" xmlns="http://www.w3.org/2000/svg">
<path d="M2.66675 9.83335L8.54675 3.95335C8.79482 3.7038 9.08984 3.5058 9.41479 3.37079C9.73974 3.23578 10.0882 3.16641 10.4401 3.16669H21.5601C21.912 3.16641 22.2604 3.23578 22.5854 3.37079C22.9103 3.5058 23.2053 3.7038 23.4534 3.95335L29.3334 9.83335" stroke="current" stroke-width="2" stroke-linecap="round" stroke-linejoin="round"/>
<path d="M5.33325 16.5V27.1667C5.33325 27.8739 5.6142 28.5522 6.1143 29.0523C6.6144 29.5524 7.29267 29.8333 7.99992 29.8333H23.9999C24.7072 29.8333 25.3854 29.5524 25.8855 29.0523C26.3856 28.5522 26.6666 27.8739 26.6666 27.1667V16.5" stroke="current" stroke-width="2" stroke-linecap="round" stroke-linejoin="round"/>
<path d="M20 29.8333V24.5C20 23.7927 19.719 23.1145 19.219 22.6144C18.7189 22.1143 18.0406 21.8333 17.3333 21.8333H14.6667C13.9594 21.8333 13.2811 22.1143 12.781 22.6144C12.281 23.1145 12 23.7927 12 24.5V29.8333" stroke="current" stroke-width="2" stroke-linecap="round" stroke-linejoin="round"/>
<path d="M2.66675 9.83331H29.3334" stroke="current" stroke-width="2" stroke-linecap="round" stroke-linejoin="round"/>
<path d="M29.3334 9.83331V13.8333C29.3334 14.5406 29.0525 15.2188 28.5524 15.7189C28.0523 16.219 27.374 16.5 26.6667 16.5C25.8877 16.4571 25.1437 16.1623 24.5467 15.66C24.3877 15.545 24.1964 15.4831 24.0001 15.4831C23.8038 15.4831 23.6125 15.545 23.4534 15.66C22.8564 16.1623 22.1124 16.4571 21.3334 16.5C20.5544 16.4571 19.8104 16.1623 19.2134 15.66C19.0543 15.545 18.863 15.4831 18.6667 15.4831C18.4705 15.4831 18.2792 15.545 18.1201 15.66C17.5231 16.1623 16.7791 16.4571 16.0001 16.5C15.2211 16.4571 14.4771 16.1623 13.8801 15.66C13.721 15.545 13.5297 15.4831 13.3334 15.4831C13.1371 15.4831 12.9458 15.545 12.7867 15.66C12.1898 16.1623 11.4458 16.4571 10.6667 16.5C9.88773 16.4571 9.14372 16.1623 8.54675 15.66C8.38765 15.545 8.19637 15.4831 8.00008 15.4831C7.8038 15.4831 7.61251 15.545 7.45341 15.66C6.85644 16.1623 6.11243 16.4571 5.33341 16.5C4.62617 16.5 3.94789 16.219 3.4478 15.7189C2.9477 15.2188 2.66675 14.5406 2.66675 13.8333V9.83331" stroke="current" stroke-width="2" stroke-linecap="round" stroke-linejoin="round"/>
</svg>
