<svg width="32" height="32" viewBox="0 0 32 32" fill="current" xmlns="http://www.w3.org/2000/svg">
<path d="M22 3V5H29C29.2652 5 29.5196 5.10536 29.7071 5.29289C29.8946 5.48043 30 5.73478 30 6C30 6.26522 29.8946 6.51957 29.7071 6.70711C29.5196 6.89464 29.2652 7 29 7H27.924L26.218 28.32C26.1376 29.3224 25.6825 30.2577 24.9435 30.9397C24.2044 31.6216 23.2356 32.0002 22.23 32H9.77C8.76439 32.0002 7.79559 31.6216 7.05655 30.9397C6.31751 30.2577 5.86245 29.3224 5.782 28.32L4.076 7H3C2.73478 7 2.48043 6.89464 2.29289 6.70711C2.10536 6.51957 2 6.26522 2 6C2 5.73478 2.10536 5.48043 2.29289 5.29289C2.48043 5.10536 2.73478 5 3 5H10V3C10 2.20435 10.3161 1.44129 10.8787 0.87868C11.4413 0.31607 12.2044 0 13 0L19 0C19.7956 0 20.5587 0.31607 21.1213 0.87868C21.6839 1.44129 22 2.20435 22 3ZM12 3V5H20V3C20 2.73478 19.8946 2.48043 19.7071 2.29289C19.5196 2.10536 19.2652 2 19 2H13C12.7348 2 12.4804 2.10536 12.2929 2.29289C12.1054 2.48043 12 2.73478 12 3ZM9 10.058L10 27.058C10.0053 27.1909 10.0371 27.3214 10.0935 27.4418C10.1499 27.5623 10.2298 27.6703 10.3284 27.7595C10.427 27.8487 10.5425 27.9174 10.6679 27.9614C10.7934 28.0055 10.9264 28.024 11.0592 28.0161C11.192 28.0081 11.3218 27.9737 11.4411 27.9149C11.5604 27.8562 11.6668 27.7742 11.754 27.6738C11.8413 27.5734 11.9076 27.4566 11.9491 27.3303C11.9907 27.2039 12.0066 27.0706 11.996 26.938L10.996 9.938C10.9907 9.80511 10.9589 9.67462 10.9025 9.55417C10.8461 9.43372 10.7662 9.32572 10.6676 9.23651C10.569 9.14729 10.4535 9.07865 10.3281 9.03459C10.2026 8.99054 10.0696 8.97196 9.93679 8.97994C9.80404 8.98792 9.67421 9.0223 9.5549 9.08107C9.43559 9.13985 9.32921 9.22183 9.24197 9.32222C9.15474 9.42261 9.08841 9.53939 9.04686 9.66573C9.00531 9.79207 8.98938 9.92543 9 10.058ZM22.06 9.002C21.7953 8.9867 21.5354 9.07713 21.3374 9.25339C21.1394 9.42966 21.0195 9.67735 21.004 9.942L20.004 26.942C19.9954 27.2027 20.0891 27.4565 20.2649 27.6491C20.4408 27.8418 20.685 27.9581 20.9454 27.9732C21.2059 27.9884 21.4619 27.9011 21.6589 27.7301C21.8559 27.5592 21.9783 27.318 22 27.058L23 10.058C23.0153 9.79333 22.9249 9.53343 22.7486 9.33541C22.5723 9.13739 22.3247 9.01746 22.06 9.002ZM16 9C15.7348 9 15.4804 9.10536 15.2929 9.29289C15.1054 9.48043 15 9.73478 15 10V27C15 27.2652 15.1054 27.5196 15.2929 27.7071C15.4804 27.8946 15.7348 28 16 28C16.2652 28 16.5196 27.8946 16.7071 27.7071C16.8946 27.5196 17 27.2652 17 27V10C17 9.73478 16.8946 9.48043 16.7071 9.29289C16.5196 9.10536 16.2652 9 16 9Z" fill="current"/>
</svg>
