<?xml version="1.0" standalone="no"?>
<!DOCTYPE svg PUBLIC "-//W3C//DTD SVG 20010904//EN"
 "http://www.w3.org/TR/2001/REC-SVG-20010904/DTD/svg10.dtd">
<svg version="1.0" xmlns="http://www.w3.org/2000/svg"
 width="current" height="current" viewBox="0 0 299.000000 362.000000"
 preserveAspectRatio="xMidYMid meet">

<g transform="translate(0.000000,362.000000) scale(0.100000,-0.100000)"
fill="current" stroke="none">
<path d="M1177 3194 c-603 -94 -1035 -656 -967 -1261 15 -137 41 -227 104
-358 149 -310 413 -523 754 -609 56 -14 125 -28 152 -32 l50 -7 0 -253 0 -253
-541 -3 -541 -3 -19 -24 c-26 -32 -24 -74 5 -108 l24 -28 1162 0 1162 0 30 34
c35 39 32 72 -8 108 l-25 23 -535 0 -534 0 2 257 3 257 90 13 c365 52 669 264
849 594 142 259 166 613 62 905 -185 517 -727 834 -1279 748z m-227 -345 c90
-24 160 -63 230 -126 79 -71 97 -120 62 -163 -13 -16 -29 -23 -51 -22 -27 1
-47 14 -105 71 -73 71 -101 85 -151 79 -35 -4 -50 -27 -41 -62 7 -27 78 -104
169 -182 55 -47 63 -83 22 -110 -69 -45 -227 61 -302 201 -64 122 -85 273 -43
315 27 27 111 27 210 -1z m1024 2 c26 -28 30 -86 12 -171 -38 -180 -159 -326
-294 -355 -45 -9 -82 15 -82 55 0 22 10 37 42 62 80 63 157 146 166 180 12 46
-1 68 -41 68 -40 0 -75 -22 -152 -94 -47 -43 -67 -56 -92 -56 -39 0 -73 30
-73 63 0 50 94 149 192 202 111 60 287 85 322 46z m-564 -433 c18 -19 20 -35
20 -147 0 -102 -3 -128 -17 -143 -23 -25 -77 -24 -103 4 -18 19 -20 35 -20
139 0 103 2 119 21 143 26 33 70 35 99 4z m-518 -219 c29 -6 90 -28 134 -50
129 -61 192 -147 150 -204 -23 -31 -66 -23 -141 29 -82 56 -113 70 -190 86
-48 10 -60 9 -81 -4 -13 -9 -24 -24 -24 -33 0 -28 110 -126 179 -158 137 -65
146 -70 155 -97 8 -22 6 -32 -10 -49 -30 -33 -136 -23 -229 21 -100 48 -218
168 -274 280 -53 107 -54 132 -1 160 51 27 241 38 332 19z m1178 0 c76 -12
107 -29 116 -65 21 -83 -166 -334 -297 -397 -112 -54 -249 -52 -249 3 0 42 23
62 127 111 115 55 218 140 211 175 -18 98 -329 -18 -470 -174 -71 -79 -70 -69
-71 -432 -2 -307 -3 -329 -21 -349 -13 -14 -31 -21 -57 -21 -70 0 -70 1 -67
391 l3 344 35 65 c44 84 164 204 255 258 147 86 318 118 485 91z"/>
</g>
</svg>
