<svg width="32" height="32" viewBox="0 0 32 32" fill="current" xmlns="http://www.w3.org/2000/svg">
<g clip-path="url(#clip0_69_12)">
<path d="M19 6C20.6563 6 22 4.65625 22 3C22 1.34375 20.6563 0 19 0C17.3438 0 16 1.34375 16 3C16 4.65625 17.3438 6 19 6ZM24.9063 15.3188L23.45 14.5813L22.8438 12.7437C21.925 9.95625 19.3625 8.00625 16.4563 8C14.2063 7.99375 12.9625 8.63125 10.625 9.575C9.275 10.1187 8.16875 11.15 7.51875 12.4625L7.1 13.3125C6.6125 14.3 7.00625 15.5 7.9875 15.9937C8.9625 16.4875 10.15 16.0875 10.6438 15.1L11.0625 14.25C11.2813 13.8125 11.6438 13.4688 12.0938 13.2875L13.7688 12.6125L12.8188 16.4062C12.4938 17.7062 12.8438 19.0875 13.75 20.0812L17.4938 24.1688C17.9438 24.6625 18.2625 25.2563 18.425 25.9L19.5688 30.4813C19.8375 31.55 20.925 32.2062 21.9938 31.9375C23.0625 31.6688 23.7188 30.5813 23.45 29.5125L22.0625 23.95C21.9 23.3063 21.5813 22.7062 21.1313 22.2188L18.2875 19.1125L19.3625 14.8188L19.7063 15.85C20.0375 16.8563 20.75 17.6875 21.6875 18.1625L23.1438 18.9C24.1188 19.3937 25.3063 18.9937 25.8 18.0063C26.2813 17.025 25.8875 15.8125 24.9063 15.3188ZM10.6 24.1125C10.4 24.6187 10.1 25.075 9.7125 25.4562L6.5875 28.5875C5.80625 29.3687 5.80625 30.6375 6.5875 31.4188C7.36875 32.2 8.63125 32.2 9.4125 31.4188L13.125 27.7062C13.5063 27.325 13.8063 26.8687 14.0125 26.3625L14.8563 24.25C11.4 20.4813 12.4375 21.6375 11.8938 20.8937L10.6 24.1125Z" fill="current"/>
</g>
<defs>
<clipPath id="clip0_69_12">
<rect width="32" height="32" fill="current"/>
</clipPath>
</defs>
</svg>
